<svg width="740" height="650" viewBox="0 0 740 650" fill="none" xmlns="http://www.w3.org/2000/svg">
<path d="M713.692 78.8461L617.231 48.0769V496.077L737.385 125C740.264 115.757 739.413 105.754 735.015 97.1296C730.616 88.5052 723.019 81.9433 713.846 78.8461H713.692Z" fill="#64FCD9"/>
<path d="M285.692 10.9999L228.615 29.6153L26.3078 95.4614C17.1023 98.53 9.45856 105.071 5.0045 113.692C0.550442 122.313 -0.361969 132.332 2.4616 141.615L159.077 623.923C162.049 633.209 168.559 640.95 177.198 645.471C185.836 649.991 195.907 650.928 205.231 648.077L420.615 577.923L464.462 563.461C469.069 562.009 473.345 559.662 477.045 556.556C480.745 553.449 483.797 549.644 486.026 545.358C488.255 541.072 489.617 536.388 490.035 531.575C490.453 526.762 489.918 521.914 488.462 517.308L332.923 34.8461C329.986 25.5365 323.481 17.7691 314.832 13.2427C306.183 8.71626 296.093 7.79925 286.769 10.6922L285.692 10.9999Z" fill="#64FCD9"/>
<path d="M544.462 449V37.3076C544.462 27.4742 540.555 18.0436 533.602 11.0903C526.649 4.13703 517.218 0.230713 507.385 0.230713H397.692C399.623 4.21148 401.268 8.32441 402.615 12.5384L541.846 439.461C542.912 442.584 543.786 445.77 544.462 449V449Z" fill="#64FCD9"/>
</svg>
