<svg width="245" height="48" viewBox="0 0 245 48" fill="none" xmlns="http://www.w3.org/2000/svg">
<path d="M53.1328 5.85035L46.0334 3.58582V36.5575L54.8765 9.24716C55.0883 8.56688 55.0257 7.8307 54.702 7.19597C54.3783 6.56124 53.8192 6.07829 53.1441 5.85035H53.1328Z" fill="#64FCD9"/>
<path d="M21.6331 0.856997L17.4324 2.22704L2.54303 7.07315C1.86553 7.29899 1.30297 7.7804 0.97516 8.41487C0.647353 9.04934 0.580202 9.78672 0.788009 10.47L12.3145 45.9666C12.5332 46.65 13.0124 47.2197 13.6481 47.5524C14.2839 47.8852 15.0251 47.9541 15.7113 47.7442L31.5631 42.5811L34.79 41.5168C35.1291 41.4098 35.4438 41.2371 35.7162 41.0085C35.9885 40.7799 36.2131 40.4999 36.3771 40.1844C36.5412 39.8689 36.6414 39.5242 36.6722 39.17C36.7029 38.8158 36.6636 38.459 36.5564 38.12L25.1091 2.61201C24.893 1.92685 24.4142 1.35519 23.7777 1.02206C23.1411 0.688927 22.3985 0.621438 21.7123 0.834352L21.6331 0.856997Z" fill="#64FCD9"/>
<path d="M40.6778 33.0927V2.79322C40.6778 2.06951 40.3903 1.37543 39.8786 0.863691C39.3668 0.351948 38.6728 0.0644531 37.9491 0.0644531H29.876C30.0181 0.357428 30.1391 0.660129 30.2383 0.970268L40.4853 32.3907C40.5638 32.6206 40.6281 32.855 40.6778 33.0927V33.0927Z" fill="#64FCD9"/>
<path d="M68.2017 31V12.8182H74.3452C75.7715 12.8182 76.9375 13.0756 77.843 13.5906C78.7545 14.0996 79.4292 14.7891 79.8672 15.6591C80.3052 16.5291 80.5241 17.4998 80.5241 18.571C80.5241 19.6423 80.3052 20.6159 79.8672 21.4918C79.4351 22.3678 78.7663 23.0662 77.8608 23.587C76.9553 24.1019 75.7952 24.3594 74.3807 24.3594H69.9773V22.4062H74.3097C75.2862 22.4062 76.0704 22.2376 76.6623 21.9002C77.2541 21.5629 77.6832 21.1071 77.9496 20.533C78.2218 19.953 78.358 19.299 78.358 18.571C78.358 17.843 78.2218 17.192 77.9496 16.6179C77.6832 16.0438 77.2512 15.594 76.6534 15.2685C76.0556 14.937 75.2625 14.7713 74.2741 14.7713H70.4034V31H68.2017ZM85.8819 12.8182V31H83.7868V12.8182H85.8819ZM93.7322 31.3196C92.868 31.3196 92.0838 31.1568 91.3795 30.8313C90.6752 30.4999 90.1159 30.0234 89.7016 29.402C89.2873 28.7746 89.0802 28.017 89.0802 27.1293C89.0802 26.348 89.234 25.7147 89.5418 25.2294C89.8496 24.7382 90.2609 24.3535 90.7758 24.0753C91.2907 23.7971 91.8589 23.59 92.4804 23.4538C93.1077 23.3118 93.7381 23.1993 94.3714 23.1165C95.2 23.0099 95.8717 22.93 96.3866 22.8768C96.9075 22.8176 97.2863 22.7199 97.523 22.5838C97.7657 22.4477 97.887 22.2109 97.887 21.8736V21.8026C97.887 20.9266 97.6473 20.246 97.1679 19.7607C96.6944 19.2753 95.9753 19.0327 95.0106 19.0327C94.0103 19.0327 93.2261 19.2517 92.6579 19.6896C92.0898 20.1276 91.6903 20.5952 91.4594 21.0923L89.4708 20.3821C89.8259 19.5535 90.2994 18.9084 90.8912 18.4467C91.489 17.9792 92.1401 17.6536 92.8444 17.4702C93.5546 17.2808 94.253 17.1861 94.9395 17.1861C95.3775 17.1861 95.8806 17.2393 96.4488 17.3459C97.0229 17.4465 97.5763 17.6566 98.1089 17.9762C98.6475 18.2958 99.0944 18.7782 99.4495 19.4233C99.8046 20.0684 99.9822 20.9325 99.9822 22.0156V31H97.887V29.1534H97.7805C97.6384 29.4493 97.4017 29.766 97.0702 30.1033C96.7388 30.4407 96.2979 30.7277 95.7474 30.9645C95.197 31.2012 94.5252 31.3196 93.7322 31.3196ZM94.0518 29.4375C94.8804 29.4375 95.5787 29.2747 96.1469 28.9492C96.721 28.6237 97.1531 28.2035 97.4431 27.6886C97.739 27.1737 97.887 26.6321 97.887 26.0639V24.1463C97.7982 24.2528 97.6029 24.3505 97.301 24.4393C97.0051 24.5221 96.6618 24.5961 96.2712 24.6612C95.8865 24.7204 95.5107 24.7737 95.1437 24.821C94.7827 24.8625 94.4897 24.898 94.2648 24.9276C93.7203 24.9986 93.2113 25.114 92.7378 25.2738C92.2703 25.4277 91.8915 25.6615 91.6015 25.9751C91.3174 26.2829 91.1753 26.7031 91.1753 27.2358C91.1753 27.9638 91.4446 28.5142 91.9832 28.8871C92.5277 29.254 93.2172 29.4375 94.0518 29.4375ZM105.901 22.7969V31H103.806V17.3636H105.83V19.4943H106.008C106.328 18.8018 106.813 18.2455 107.464 17.8253C108.115 17.3991 108.955 17.1861 109.985 17.1861C110.909 17.1861 111.716 17.3755 112.409 17.7543C113.101 18.1271 113.64 18.6953 114.025 19.4588C114.409 20.2164 114.602 21.1752 114.602 22.3352V31H112.507V22.4773C112.507 21.406 112.228 20.5715 111.672 19.9737C111.116 19.37 110.352 19.0682 109.382 19.0682C108.713 19.0682 108.115 19.2132 107.588 19.5032C107.067 19.7932 106.656 20.2164 106.354 20.7727C106.052 21.3291 105.901 22.0038 105.901 22.7969ZM120.525 22.7969V31H118.43V17.3636H120.454V19.4943H120.632C120.952 18.8018 121.437 18.2455 122.088 17.8253C122.739 17.3991 123.579 17.1861 124.609 17.1861C125.533 17.1861 126.34 17.3755 127.033 17.7543C127.725 18.1271 128.264 18.6953 128.649 19.4588C129.033 20.2164 129.226 21.1752 129.226 22.3352V31H127.131V22.4773C127.131 21.406 126.852 20.5715 126.296 19.9737C125.74 19.37 124.976 19.0682 124.006 19.0682C123.337 19.0682 122.739 19.2132 122.212 19.5032C121.691 19.7932 121.28 20.2164 120.978 20.7727C120.676 21.3291 120.525 22.0038 120.525 22.7969ZM133.054 31V17.3636H135.15V31H133.054ZM134.12 15.0909C133.711 15.0909 133.359 14.9518 133.063 14.6737C132.773 14.3955 132.628 14.0611 132.628 13.6705C132.628 13.2798 132.773 12.9454 133.063 12.6673C133.359 12.3891 133.711 12.25 134.12 12.25C134.528 12.25 134.877 12.3891 135.167 12.6673C135.463 12.9454 135.611 13.2798 135.611 13.6705C135.611 14.0611 135.463 14.3955 135.167 14.6737C134.877 14.9518 134.528 15.0909 134.12 15.0909ZM141.082 22.7969V31H138.987V17.3636H141.011V19.4943H141.189C141.508 18.8018 141.994 18.2455 142.645 17.8253C143.296 17.3991 144.136 17.1861 145.166 17.1861C146.089 17.1861 146.897 17.3755 147.59 17.7543C148.282 18.1271 148.821 18.6953 149.205 19.4588C149.59 20.2164 149.782 21.1752 149.782 22.3352V31H147.687V22.4773C147.687 21.406 147.409 20.5715 146.853 19.9737C146.296 19.37 145.533 19.0682 144.562 19.0682C143.893 19.0682 143.296 19.2132 142.769 19.5032C142.248 19.7932 141.837 20.2164 141.535 20.7727C141.233 21.3291 141.082 22.0038 141.082 22.7969ZM159.115 36.3977C158.103 36.3977 157.233 36.2675 156.505 36.0071C155.777 35.7526 155.171 35.4152 154.685 34.995C154.206 34.5807 153.824 34.1368 153.54 33.6634L155.209 32.4915C155.398 32.7401 155.638 33.0241 155.928 33.3438C156.218 33.6693 156.615 33.9504 157.118 34.1871C157.627 34.4298 158.293 34.5511 159.115 34.5511C160.216 34.5511 161.125 34.2848 161.841 33.7521C162.557 33.2195 162.915 32.3849 162.915 31.2486V28.4787H162.737C162.584 28.7273 162.365 29.035 162.08 29.402C161.802 29.763 161.4 30.0856 160.873 30.3697C160.352 30.6478 159.648 30.7869 158.76 30.7869C157.659 30.7869 156.671 30.5265 155.795 30.0057C154.925 29.4848 154.235 28.7273 153.726 27.733C153.223 26.7386 152.972 25.5312 152.972 24.1108C152.972 22.714 153.217 21.4978 153.709 20.462C154.2 19.4203 154.883 18.6154 155.759 18.0472C156.635 17.4731 157.647 17.1861 158.796 17.1861C159.683 17.1861 160.388 17.334 160.909 17.63C161.435 17.92 161.838 18.2514 162.116 18.6243C162.4 18.9912 162.619 19.2931 162.773 19.5298H162.986V17.3636H165.01V31.3906C165.01 32.5625 164.744 33.5154 164.211 34.2493C163.684 34.9891 162.974 35.5307 162.08 35.8739C161.193 36.2231 160.204 36.3977 159.115 36.3977ZM159.044 28.9048C159.885 28.9048 160.595 28.7125 161.175 28.3278C161.755 27.9431 162.196 27.3897 162.498 26.6676C162.8 25.9455 162.95 25.0814 162.95 24.0753C162.95 23.0928 162.802 22.2257 162.507 21.4741C162.211 20.7224 161.773 20.1335 161.193 19.7074C160.613 19.2812 159.896 19.0682 159.044 19.0682C158.156 19.0682 157.417 19.2931 156.825 19.7429C156.239 20.1927 155.798 20.7964 155.502 21.554C155.212 22.3116 155.067 23.152 155.067 24.0753C155.067 25.0223 155.215 25.8597 155.511 26.5877C155.813 27.3098 156.257 27.878 156.843 28.2923C157.434 28.7006 158.168 28.9048 159.044 28.9048Z" fill="white"/>
<path d="M176.793 33V14.8182H183.612C185.008 14.8182 186.18 15.0786 187.127 15.5994C188.08 16.1203 188.799 16.8364 189.284 17.7479C189.776 18.6534 190.021 19.6832 190.021 20.8374C190.021 22.0033 189.776 23.0391 189.284 23.9446C188.793 24.8501 188.068 25.5633 187.109 26.0842C186.151 26.5991 184.97 26.8565 183.567 26.8565H179.048V24.1488H183.123C183.94 24.1488 184.609 24.0067 185.13 23.7227C185.65 23.4386 186.035 23.0479 186.284 22.5508C186.538 22.0536 186.665 21.4825 186.665 20.8374C186.665 20.1922 186.538 19.6241 186.284 19.1328C186.035 18.6416 185.647 18.2598 185.121 17.9876C184.6 17.7094 183.928 17.5703 183.105 17.5703H180.087V33H176.793ZM198.493 33.2663C197.161 33.2663 196.007 32.9734 195.031 32.3874C194.054 31.8015 193.296 30.9818 192.758 29.9283C192.225 28.8748 191.959 27.6437 191.959 26.2351C191.959 24.8265 192.225 23.5924 192.758 22.533C193.296 21.4736 194.054 20.6509 195.031 20.065C196.007 19.479 197.161 19.1861 198.493 19.1861C199.825 19.1861 200.979 19.479 201.955 20.065C202.932 20.6509 203.687 21.4736 204.219 22.533C204.758 23.5924 205.027 24.8265 205.027 26.2351C205.027 27.6437 204.758 28.8748 204.219 29.9283C203.687 30.9818 202.932 31.8015 201.955 32.3874C200.979 32.9734 199.825 33.2663 198.493 33.2663ZM198.511 30.6918C199.233 30.6918 199.836 30.4935 200.322 30.0969C200.807 29.6945 201.168 29.1559 201.405 28.4812C201.648 27.8065 201.769 27.0548 201.769 26.2262C201.769 25.3917 201.648 24.6371 201.405 23.9624C201.168 23.2817 200.807 22.7402 200.322 22.3377C199.836 21.9353 199.233 21.734 198.511 21.734C197.771 21.734 197.155 21.9353 196.664 22.3377C196.179 22.7402 195.815 23.2817 195.572 23.9624C195.335 24.6371 195.217 25.3917 195.217 26.2262C195.217 27.0548 195.335 27.8065 195.572 28.4812C195.815 29.1559 196.179 29.6945 196.664 30.0969C197.155 30.4935 197.771 30.6918 198.511 30.6918ZM210.684 28.7209L210.676 24.8413H211.191L216.091 19.3636H219.846L213.818 26.0753H213.153L210.684 28.7209ZM207.755 33V14.8182H210.969V33H207.755ZM216.313 33L211.874 26.7944L214.04 24.5305L220.157 33H216.313ZM227.464 33.2663C226.096 33.2663 224.916 32.9822 223.921 32.4141C222.933 31.84 222.172 31.0291 221.64 29.9815C221.107 28.928 220.841 27.6881 220.841 26.2617C220.841 24.859 221.107 23.628 221.64 22.5685C222.178 21.5032 222.93 20.6746 223.895 20.0827C224.859 19.485 225.993 19.1861 227.295 19.1861C228.135 19.1861 228.928 19.3222 229.674 19.5945C230.426 19.8608 231.089 20.2751 231.663 20.8374C232.243 21.3996 232.699 22.1158 233.03 22.9858C233.361 23.8499 233.527 24.8797 233.527 26.0753V27.0607H222.35V24.8945H230.447C230.441 24.279 230.307 23.7315 230.047 23.2521C229.787 22.7668 229.423 22.3851 228.955 22.1069C228.493 21.8287 227.955 21.6896 227.339 21.6896C226.682 21.6896 226.105 21.8494 225.608 22.169C225.111 22.4827 224.723 22.897 224.445 23.4119C224.173 23.9209 224.034 24.4802 224.028 25.0898V26.9808C224.028 27.7739 224.173 28.4545 224.463 29.0227C224.753 29.585 225.158 30.017 225.679 30.3189C226.2 30.6148 226.81 30.7628 227.508 30.7628C227.976 30.7628 228.399 30.6977 228.778 30.5675C229.156 30.4313 229.485 30.2331 229.763 29.9727C230.041 29.7122 230.251 29.3897 230.393 29.005L233.394 29.3423C233.205 30.1354 232.844 30.8279 232.311 31.4197C231.784 32.0057 231.109 32.4614 230.287 32.7869C229.464 33.1065 228.523 33.2663 227.464 33.2663ZM236.246 33V19.3636H239.362V21.6364H239.504C239.753 20.8492 240.179 20.2425 240.783 19.8164C241.392 19.3844 242.088 19.1683 242.869 19.1683C243.046 19.1683 243.245 19.1772 243.464 19.195C243.689 19.2068 243.875 19.2275 244.023 19.2571V22.2134C243.887 22.1661 243.671 22.1246 243.375 22.0891C243.085 22.0477 242.804 22.027 242.532 22.027C241.946 22.027 241.419 22.1542 240.951 22.4087C240.49 22.6573 240.126 23.0036 239.859 23.4474C239.593 23.8913 239.46 24.4033 239.46 24.9833V33H236.246Z" fill="#64FCD9"/>
</svg>
