<svg width="701" height="508" viewBox="0 0 701 508" fill="none" xmlns="http://www.w3.org/2000/svg">
<path fill-rule="evenodd" clip-rule="evenodd" d="M663.455 371.654C612.76 473.885 393.384 561.883 175.384 467.401C49.9926 413.056 2.5609 282.103 0.077304 221.532C-1.8758 173.898 33.6349 123.113 55.0725 101.293C100.641 54.9118 343.836 -2.85722 399.384 0.10978C477.803 -2.09022 526.725 65.9678 588.45 69.2138C632.338 71.5208 763.76 169.379 663.455 371.654Z" fill="#64FCD9"/>
<path fill-rule="evenodd" clip-rule="evenodd" d="M357.874 214.16C357.619 217.96 357.931 221.798 358.796 225.508C359.16 227.073 361.508 227.362 362.728 226.317C363.948 225.272 364.273 223.535 364.405 221.934C364.599 219.567 364.537 217.18 364.219 214.826C364.055 213.61 363.803 212.356 363.07 211.372C362.336 210.388 360.995 209.758 359.85 210.197C358.39 210.757 357.978 212.6 357.874 214.16Z" fill="white"/>
<path fill-rule="evenodd" clip-rule="evenodd" d="M173.255 120.888C186.653 114.253 202.652 113.064 216.884 117.647C220.459 110.776 225.727 104.794 232.089 100.378C233.316 99.5258 235.073 98.7558 236.177 99.7628C235.733 106.823 235.288 113.904 235.705 120.965C236.03 126.462 236.876 131.927 236.954 137.433C237.177 153.346 230.939 168.759 222.452 182.222C242.827 195.925 258.187 216.918 265.081 240.484C262.198 241.972 186.751 244.594 145.941 241.331C144.996 241.972 144.111 240.425 144.003 239.288C142.911 227.79 142.298 216.083 144.684 204.783C147.069 193.482 152.77 182.498 162.189 175.814C153.448 156.783 156.847 133.437 146.184 115.413C145.551 114.343 145.018 112.674 146.126 112.11C146.537 111.901 147.028 111.966 147.483 112.043C154.918 113.305 162.003 116.574 167.787 121.414C169.279 122.663 171.511 121.751 173.255 120.888Z" fill="white"/>
<path fill-rule="evenodd" clip-rule="evenodd" d="M462.367 239.319C462.316 239.319 470.114 227.628 474.896 222.189C479.262 217.222 481.821 210.701 481.999 204.09C466.901 203.494 451.879 200.999 437.399 196.685C435.183 196.024 432.897 195.275 431.217 193.686C427.294 189.976 428.265 183.505 430.288 178.499C432.743 172.423 436.311 166.798 440.761 161.987C442.282 160.342 443.933 158.753 444.93 156.747C445.926 154.74 446.136 152.158 444.791 150.365C442.525 147.345 442.048 143.377 441.812 139.609C441.576 135.84 441.469 131.922 439.757 128.557C438.045 125.191 434.158 122.575 430.547 123.678C429.672 122.341 431.401 120.798 432.924 120.314C438.676 118.486 445.12 120.086 450.162 123.403C455.205 126.72 459.03 131.584 462.316 136.647C463.6 138.624 465.769 140.945 467.861 139.859C482.144 132.442 499.576 131.361 514.666 136.957C516.764 137.734 519.988 138.067 520.416 135.872C522.545 124.937 531.671 115.702 542.579 113.442C538.292 116.516 538.033 122.77 538.891 127.976C539.749 133.181 541.261 138.726 539.121 143.548C537.393 147.44 541.744 151.098 545.268 153.489C550.589 157.101 555.347 161.539 559.318 166.597C563.248 171.601 566.523 178.033 564.728 184.137C562.379 192.128 552.975 195.291 544.882 197.264C536.983 199.19 529.083 201.116 521.184 203.042C521.038 210.748 523.789 218.475 528.772 224.355C532.77 229.072 538.578 233.934 537.307 239.985C539.968 244.205 514.988 243.983 462.367 239.319Z" fill="white"/>
<path fill-rule="evenodd" clip-rule="evenodd" d="M481.326 343.535C484.048 345.219 487.067 347.236 490.179 346.485C497.384 344.747 505.099 345.184 512.062 347.723C514.993 348.792 517.651 345.76 519.488 343.238C524.82 335.918 531.793 329.8 539.744 325.465C545.227 334.465 539.673 346.919 544.44 356.318C551.818 370.863 549.859 389.65 539.637 402.36C550.364 412.84 557.657 426.779 560.151 441.567C558.876 441.943 493.542 450.046 457.666 440.323C457.269 429.901 461.027 419.378 467.936 411.564C457.679 399.485 452.675 383.093 454.437 367.344C454.621 365.705 454.857 363.957 454.126 362.479C450.299 354.729 447.663 346.393 446.339 337.853C446.26 337.343 446.194 336.783 446.464 336.343C446.822 335.758 447.603 335.631 448.286 335.575C459.77 334.639 471.529 337.472 481.326 343.535Z" fill="white"/>
<path fill-rule="evenodd" clip-rule="evenodd" d="M170.6 442.983C171.905 435.168 173.211 427.353 174.516 419.537C174.855 417.509 174.808 414.793 172.852 414.157C166.753 412.175 161.599 407.46 159.083 401.561C158.291 399.703 155.845 399.042 153.9 399.589C151.956 400.136 150.404 401.566 148.932 402.951C149.772 399.67 152.786 397.064 156.154 396.707C157.297 394.781 155.66 392.119 153.491 391.56C151.322 391 149.037 391.978 147.225 393.296C147.084 391.208 149.625 390.186 151.55 389.366C153.476 388.546 155.356 385.955 153.714 384.657C152.999 384.091 151.982 384.192 151.079 384.321C148.468 384.694 145.858 385.068 143.247 385.441C143.544 383.339 146.275 382.8 148.392 382.637C150.508 382.475 153.241 381.444 153.005 379.334C152.098 371.205 154.067 362.96 157.352 355.469C160.074 349.263 152.064 343.047 152.589 336.291C152.63 335.768 152.755 335.195 153.177 334.883C153.681 334.51 154.386 334.659 154.985 334.844C159.109 336.117 162.933 338.351 166.066 341.319C167.586 342.76 170.036 341.778 171.949 340.924C179.005 337.775 187.275 337.449 194.556 340.032C201.132 342.365 206.964 331.112 213.481 333.605C211.817 339.079 210.154 344.553 208.491 350.027C208.032 351.537 207.598 353.271 208.432 354.611C211.242 359.125 212.946 364.323 213.355 369.625C213.642 373.36 214.365 378.405 218.1 378.698C216.473 379.413 214.679 380.305 214.116 381.99C213.553 383.675 215.478 385.899 216.935 384.882C218.193 384.005 220.226 384.737 220.635 386.215C218.48 386.004 216.143 386.239 214.458 387.599C212.773 388.96 212.112 391.711 213.54 393.339C216.673 392.048 220.373 392.217 223.375 393.789C221.586 395.104 219.129 394.715 216.912 394.583C214.695 394.451 211.996 394.963 211.211 397.04C208.593 403.974 202.16 409.324 194.865 410.634C191.272 411.279 190.695 416.139 190.992 419.778C191.613 427.412 192.234 435.045 192.856 442.679C191.576 443.894 176.716 445.578 170.6 442.983Z" fill="white"/>
<path fill-rule="evenodd" clip-rule="evenodd" d="M71.1585 410.199C70.9039 413.999 71.2156 417.837 72.0804 421.547C72.4451 423.112 74.7927 423.401 76.0128 422.356C77.233 421.311 77.5582 419.574 77.6896 417.973C77.8839 415.606 77.8216 413.219 77.5041 410.865C77.34 409.649 77.088 408.395 76.3545 407.411C75.6211 406.427 74.2803 405.797 73.1345 406.236C71.6751 406.796 71.263 408.639 71.1585 410.199Z" fill="white"/>
<path fill-rule="evenodd" clip-rule="evenodd" d="M366.272 431.151C366.727 431.406 366.662 432.14 366.278 432.493C365.894 432.846 365.339 432.922 364.82 432.982C363.011 433.191 361.021 433.358 359.522 432.324C360.284 431.78 361.046 431.237 361.808 430.693C361.329 430.006 360.389 429.867 359.558 429.765C358.726 429.664 357.78 429.464 357.374 428.731C356.969 427.998 357.853 426.832 358.518 427.341C360.572 428.914 363.592 429.093 365.817 427.774C367.282 426.906 368.669 425.4 370.34 425.725C369.172 428 366.858 429.648 364.327 430.008C364.385 430.892 365.472 431.531 366.272 431.151Z" fill="#00160A"/>
<path fill-rule="evenodd" clip-rule="evenodd" d="M75.8066 429.966C73.9959 430.176 72.0035 430.344 70.504 429.307C71.2719 428.762 72.0398 428.217 72.8076 427.672C72.2787 427.003 71.3295 426.888 70.4845 426.772C69.6395 426.656 68.6782 426.396 68.3282 425.618C67.9783 424.84 69.025 423.752 69.6221 424.361C71.0894 425.858 73.5272 425.953 75.5099 425.273C77.4926 424.593 79.1847 423.284 80.9925 422.223C81.0385 424.898 77.9062 426.307 75.3279 427.021C75.3878 427.893 76.4673 428.518 77.2531 428.135C77.7093 428.388 77.6469 429.122 77.2636 429.475C76.8803 429.829 76.3247 429.906 75.8066 429.966Z" fill="#00160A"/>
<path fill-rule="evenodd" clip-rule="evenodd" d="M71.8513 424.682C69.0188 423.627 68.4484 419.94 68.332 416.919C68.255 414.921 68.178 412.923 68.101 410.925C68.0579 409.806 68.0179 408.662 68.3483 407.592C68.8995 405.808 70.537 404.408 72.3859 404.141C74.2348 403.875 76.2011 404.755 77.2341 406.311C77.8246 407.201 78.1124 408.254 78.3381 409.297C78.8194 411.522 79.0597 413.799 79.0537 416.075C79.0479 418.281 78.7763 420.586 77.5519 422.422C76.3274 424.257 73.9186 425.453 71.8513 424.682ZM74.3892 423.02C75.8551 422.558 76.3938 420.789 76.6016 419.266C76.9623 416.622 76.9927 413.934 76.6917 411.284C76.5402 409.949 76.2799 408.565 75.459 407.501C74.6381 406.438 73.1018 405.817 71.9042 406.425C70.4189 407.18 70.2481 409.196 70.2759 410.861C70.3121 413.031 70.3483 415.202 70.3846 417.372C70.4071 418.722 70.4433 420.128 71.0687 421.325C71.6941 422.522 73.1014 423.426 74.3892 423.02Z" fill="#00160A"/>
<path fill-rule="evenodd" clip-rule="evenodd" d="M359.404 406.692C361.418 405.406 364.27 406.329 365.787 408.176C367.304 410.022 367.758 412.514 367.897 414.9C367.978 416.282 367.972 417.669 367.879 419.05C367.747 420.99 367.417 422.988 366.342 424.607C365.267 426.227 363.283 427.374 361.384 426.958C359.752 426.6 358.519 425.179 357.929 423.616C357.338 422.052 357.281 420.346 357.231 418.676C357.183 417.086 357.135 415.495 357.087 413.905C357.007 411.258 357.172 408.118 359.404 406.692ZM361.799 425.131C362.898 425.402 364.061 424.729 364.686 423.785C365.31 422.841 365.502 421.681 365.62 420.555C365.88 418.077 365.849 415.569 365.53 413.098C365.367 411.832 365.105 410.523 364.326 409.512C363.547 408.502 362.111 407.893 360.952 408.427C359.561 409.069 359.247 410.877 359.179 412.407C359.05 415.305 359.145 418.214 359.461 421.098C359.642 422.748 360.187 424.733 361.799 425.131Z" fill="#00160A"/>
<path fill-rule="evenodd" clip-rule="evenodd" d="M359.158 412.199C358.903 415.999 359.215 419.837 360.08 423.547C360.445 425.112 362.793 425.401 364.013 424.356C365.233 423.311 365.559 421.574 365.69 419.973C365.884 417.606 365.822 415.219 365.505 412.865C365.341 411.649 365.088 410.395 364.355 409.411C363.622 408.427 362.281 407.797 361.135 408.236C359.676 408.796 359.263 410.639 359.158 412.199Z" fill="white"/>
<path fill-rule="evenodd" clip-rule="evenodd" d="M355.129 229.24C355.336 228.558 356.217 228.309 356.911 228.472C357.605 228.635 358.196 229.079 358.852 229.36C361.298 230.408 364.101 229.044 366.18 227.383C366.878 226.826 368 226.265 368.528 226.986C367.275 229.115 365.041 230.64 362.602 231.033C362.676 231.907 363.746 232.531 364.543 232.165C364.993 232.422 364.926 233.149 364.545 233.499C364.163 233.849 363.611 233.925 363.097 233.985C361.301 234.194 359.334 234.364 357.826 233.365C358.631 232.733 359.435 232.101 360.239 231.469C358.374 231.217 356.583 230.436 355.129 229.24Z" fill="#00160A"/>
<path fill-rule="evenodd" clip-rule="evenodd" d="M448.286 335.575C459.77 334.639 471.529 337.472 481.326 343.535C484.048 345.219 487.067 347.236 490.179 346.485C497.384 344.747 505.099 345.184 512.062 347.723C514.993 348.792 517.651 345.76 519.488 343.238C524.82 335.918 531.793 329.8 539.744 325.465C545.227 334.465 539.673 346.919 544.44 356.318C551.818 370.863 549.859 389.65 539.637 402.36C550.364 412.84 557.657 426.779 560.151 441.567C558.876 441.943 558.039 440.278 557.731 438.985C554.979 427.429 549.513 416.529 541.898 407.411C540.115 405.276 537.201 403.064 534.849 404.549C516.16 416.35 492.469 419.913 471.136 414.133C467.616 413.18 465.117 417.454 463.988 420.921C461.88 427.388 459.773 433.856 457.666 440.323C457.269 429.901 461.027 419.378 467.936 411.564C457.679 399.485 452.675 383.093 454.437 367.344C454.621 365.705 454.857 363.957 454.126 362.479C450.299 354.729 447.663 346.393 446.339 337.853C446.26 337.343 446.194 336.783 446.464 336.343C446.822 335.758 447.603 335.631 448.286 335.575ZM494.863 356.28C490.806 360.004 487.461 364.501 485.06 369.457C483.642 364.705 484.41 359.346 487.107 355.184C483.46 356.548 480.082 358.631 477.227 361.279C477.229 357.321 479.242 353.415 482.463 351.115C481.068 351.156 479.673 351.196 478.278 351.237C479.731 349.435 481.778 348.12 484.021 347.547C473.747 340.22 460.867 336.63 448.284 337.585C450.503 350.7 455.801 363.284 463.629 374.038C460.285 372.67 457.551 369.876 456.257 366.503C454.822 380.022 458.264 394.006 465.808 405.315C467.212 407.421 468.783 409.465 470.821 410.966C474.203 413.456 478.535 414.219 482.717 414.601C499.442 416.128 516.598 412.574 531.34 404.528C534.173 402.981 536.949 401.249 539.195 398.931C542.166 395.864 544.074 391.899 545.301 387.808C548.52 377.074 547.155 365.046 541.611 355.307C540.61 358.295 539.608 361.282 538.606 364.27C538.184 365.53 536.31 366.846 535.952 365.566C540.925 353.783 541.99 340.389 538.945 327.968C527.589 335.505 518.073 345.793 511.445 357.702C511.166 354.928 511.88 352.065 513.426 349.745C506.257 355.237 500.042 361.973 495.146 369.561C494.256 365.199 494.16 360.676 494.863 356.28Z" fill="#00160A"/>
<path fill-rule="evenodd" clip-rule="evenodd" d="M64.6627 231.474C65.6306 231.644 66.6754 231.273 67.3196 230.531C65.3641 230.183 63.4926 229.372 61.9011 228.183C62.5352 227.098 64.1594 227.75 65.3302 228.208C68.1662 229.317 71.7069 228.178 73.3635 225.622C73.8092 224.935 75.0028 225.723 74.8718 226.531C74.7409 227.34 73.9437 227.84 73.2254 228.234C71.8528 228.986 70.4803 229.738 69.1077 230.49C70.2357 230.592 71.3217 231.107 72.1135 231.917C70.6174 233.136 68.51 233.16 66.5808 233.125C66.0569 233.116 65.5034 233.098 65.0601 232.819C64.6168 232.54 64.3566 231.9 64.6627 231.474Z" fill="#00160A"/>
<path fill-rule="evenodd" clip-rule="evenodd" d="M356.639 210.188C358.192 207.759 362.102 207.336 364.138 209.378C365.307 210.55 365.795 212.23 366.104 213.856C366.523 216.058 366.694 218.308 366.613 220.548C366.539 222.613 366.22 224.754 365.055 226.461C363.891 228.168 361.69 229.308 359.718 228.692C356.765 227.77 356.097 223.962 355.951 220.872C355.874 219.239 355.797 217.606 355.72 215.973C355.626 213.99 355.569 211.862 356.639 210.188ZM357.873 214.157C357.618 217.957 357.93 221.795 358.794 225.505C359.159 227.07 361.507 227.358 362.727 226.314C363.947 225.269 364.272 223.532 364.404 221.931C364.598 219.564 364.536 217.176 364.218 214.823C364.054 213.607 363.802 212.353 363.069 211.369C362.335 210.385 360.994 209.755 359.849 210.194C358.389 210.754 357.977 212.597 357.873 214.157Z" fill="#00160A"/>
<path fill-rule="evenodd" clip-rule="evenodd" d="M65.1585 212.199C64.9039 215.999 65.2156 219.838 66.0804 223.547C66.4451 225.112 68.7927 225.401 70.0128 224.356C71.233 223.311 71.5582 221.574 71.6896 219.973C71.8839 217.606 71.8216 215.219 71.5041 212.865C71.34 211.649 71.088 210.395 70.3545 209.411C69.6211 208.427 68.2803 207.797 67.1345 208.236C65.6751 208.796 65.263 210.639 65.1585 212.199Z" fill="white"/>
<path fill-rule="evenodd" clip-rule="evenodd" d="M65.7406 227.362C63.6 226.292 63.0134 223.553 62.7788 221.172C62.5501 218.85 62.4191 216.518 62.3863 214.185C62.3644 212.626 62.403 210.997 63.1351 209.621C63.9311 208.124 65.547 207.098 67.2401 207.014C68.9333 206.93 70.6429 207.791 71.5832 209.201C72.2003 210.127 72.4856 211.231 72.7023 212.322C73.1488 214.57 73.3482 216.867 73.2958 219.158C73.2449 221.384 72.915 223.713 71.5993 225.51C70.2837 227.307 67.7328 228.357 65.7406 227.362ZM65.1692 223.373C65.3248 224.114 65.5403 224.888 66.0902 225.408C67.1696 226.428 69.077 225.92 69.9887 224.747C70.9003 223.575 71.0673 222.001 71.1274 220.517C71.2161 218.327 71.147 216.131 70.9209 213.95C70.7926 212.713 70.5975 211.436 69.9183 210.395C69.2391 209.353 67.9483 208.612 66.7489 208.94C64.8514 209.459 64.4854 211.951 64.4924 213.918C64.5038 217.084 64.5179 220.275 65.1692 223.373Z" fill="#00160A"/>
<path fill-rule="evenodd" clip-rule="evenodd" d="M462.367 239.319C462.848 232.093 470.114 227.628 474.896 222.189C479.262 217.222 481.821 210.701 481.999 204.09C466.901 203.494 451.879 200.999 437.399 196.685C435.183 196.024 432.897 195.275 431.217 193.686C427.294 189.976 428.265 183.505 430.288 178.499C432.743 172.423 436.311 166.798 440.761 161.987C442.282 160.342 443.933 158.753 444.93 156.747C445.926 154.74 446.136 152.158 444.791 150.365C442.525 147.345 442.048 143.377 441.812 139.609C441.576 135.84 441.469 131.922 439.757 128.557C438.045 125.191 434.158 122.575 430.547 123.678C429.672 122.341 431.401 120.798 432.924 120.314C438.676 118.486 445.12 120.086 450.162 123.403C455.205 126.72 459.03 131.584 462.316 136.647C463.6 138.624 465.769 140.945 467.861 139.859C482.144 132.442 499.576 131.361 514.666 136.957C516.764 137.734 519.988 138.067 520.416 135.872C522.545 124.937 531.671 115.702 542.579 113.442C538.292 116.516 538.033 122.77 538.891 127.976C539.749 133.181 541.261 138.726 539.121 143.548C537.393 147.44 541.744 151.098 545.268 153.489C550.589 157.101 555.347 161.539 559.318 166.597C563.248 171.601 566.523 178.033 564.728 184.137C562.379 192.128 552.975 195.291 544.882 197.264C536.983 199.19 529.083 201.116 521.184 203.042C521.038 210.748 523.789 218.475 528.772 224.355C532.77 229.072 538.578 233.934 537.307 239.985C534.604 233.551 529.533 228.466 525.459 222.799C521.386 217.133 518.175 210.042 520.017 203.311C516.411 202.021 512.627 204.599 509.9 207.288C507.173 209.977 504.296 213.147 500.472 213.362C494.174 213.716 490.241 206.03 484.085 204.655C483.943 208.776 482.864 212.863 480.954 216.518C478.923 220.405 476.005 223.745 473.116 227.045C469.533 231.136 465.95 235.227 462.367 239.319ZM468.236 141.562C464.406 143.425 470.338 150.702 466.91 153.229C465.147 143.663 460.15 134.722 452.924 128.21C448.232 123.98 442.006 120.648 435.799 121.823C439.428 123.249 441.637 127.021 442.587 130.803C443.537 134.584 443.504 138.542 444.165 142.385C445.33 149.149 448.713 155.513 453.67 160.261C451.412 160.231 449.225 158.844 448.236 156.814C441.286 163.062 435.702 170.821 431.983 179.394C430.515 182.776 429.37 186.81 431.186 190.018C432.718 192.725 435.888 193.983 438.847 194.941C449.492 198.388 460.566 200.511 471.732 201.245C478.403 201.683 485.607 201.794 490.94 205.827C492.877 207.292 494.469 209.22 496.581 210.421C498.692 211.622 501.672 211.867 503.316 210.079C509.735 203.098 519.495 200.392 528.821 198.675C538.147 196.958 547.885 195.809 556.015 190.93C559.067 189.098 561.961 186.563 562.947 183.143C564.289 178.494 561.784 173.641 558.954 169.716C553.247 161.801 545.821 155.131 537.341 150.303C536.971 151.771 536.063 153.097 534.828 153.974C534.43 152.312 535.156 150.616 535.738 149.009C539.335 139.074 537.696 128.104 536.013 117.673C524.976 124.042 519.241 138.367 522.834 150.593C520.73 150.984 519.735 148.035 519.94 145.904C520.144 143.773 520.315 140.99 518.34 140.162C502.457 133.505 483.722 134.029 468.236 141.562Z" fill="#00160A"/>
<path fill-rule="evenodd" clip-rule="evenodd" d="M175.789 368.622C176.898 370.495 177.022 372.916 176.108 374.891C175.623 375.939 173.983 375.903 173.159 375.093C172.336 374.284 172.12 373.058 171.961 371.915C171.816 370.88 171.69 369.789 172.084 368.822C172.479 367.854 173.583 367.094 174.565 367.448C175.108 367.644 175.495 368.126 175.789 368.622Z" fill="#00160A"/>
<path fill-rule="evenodd" clip-rule="evenodd" d="M192.856 442.679C189.344 433.765 188.171 423.941 189.487 414.451C186.178 418.076 180.072 418.695 176.104 415.806C177.053 425.142 175.107 434.752 170.6 442.983C171.905 435.168 173.211 427.353 174.516 419.537C174.855 417.509 174.808 414.793 172.852 414.157C166.753 412.175 161.599 407.46 159.083 401.561C158.291 399.703 155.845 399.042 153.9 399.589C151.956 400.136 150.404 401.566 148.932 402.951C149.772 399.67 152.786 397.064 156.154 396.707C157.297 394.781 155.66 392.119 153.491 391.56C151.322 391 149.037 391.978 147.225 393.296C147.084 391.208 149.625 390.186 151.55 389.366C153.476 388.546 155.356 385.955 153.714 384.657C152.999 384.091 151.982 384.192 151.079 384.321C148.468 384.694 145.858 385.068 143.247 385.441C143.544 383.339 146.275 382.8 148.392 382.637C150.508 382.475 153.241 381.444 153.005 379.334C152.098 371.205 154.067 362.96 157.352 355.469C160.074 349.263 152.064 343.047 152.589 336.291C152.63 335.768 152.755 335.195 153.177 334.883C153.681 334.51 154.386 334.659 154.985 334.844C159.109 336.117 162.933 338.351 166.066 341.319C167.586 342.76 170.036 341.778 171.949 340.924C179.005 337.775 187.275 337.449 194.556 340.032C201.132 342.365 206.964 331.112 213.481 333.605C211.817 339.079 210.154 344.553 208.491 350.027C208.032 351.537 207.598 353.271 208.432 354.611C211.242 359.125 212.946 364.323 213.355 369.625C213.642 373.36 214.365 378.405 218.1 378.698C216.473 379.413 214.679 380.305 214.116 381.99C213.553 383.675 215.478 385.899 216.935 384.882C218.193 384.005 220.226 384.737 220.635 386.215C218.48 386.004 216.143 386.239 214.458 387.599C212.773 388.96 212.112 391.711 213.54 393.339C216.673 392.048 220.373 392.217 223.375 393.789C221.586 395.104 219.129 394.715 216.912 394.583C214.695 394.451 211.996 394.963 211.211 397.04C208.593 403.974 202.16 409.324 194.865 410.634C191.272 411.279 190.695 416.139 190.992 419.778C191.613 427.412 192.234 435.045 192.856 442.679ZM195.756 387.813C194.606 388.864 192.621 389.959 191.769 388.655C196.693 383.372 203.444 379.825 210.588 378.768C212.045 378.552 212.368 376.606 212.264 375.136C211.751 367.905 209.676 360.788 206.222 354.414C205.704 355.754 204.064 356.541 202.695 356.106C206.779 349.97 209.466 342.91 210.495 335.612C203.958 338.322 198.15 342.768 193.828 348.371C193.226 346.221 194.188 343.73 196.079 342.543C187.456 339.379 177.546 339.907 169.308 343.97C169.523 345.307 169.737 346.644 169.951 347.981C165.91 343.086 160.644 339.211 154.769 336.809C156.679 343.941 159.463 350.839 163.04 357.298C161.487 357.634 159.8 356.288 159.782 354.699C156.537 361.76 154.753 369.489 154.575 377.259C154.524 379.492 155.423 382.514 157.645 382.283C163.711 381.655 170.008 383.765 174.47 387.92C170.328 386.724 166.186 385.527 162.044 384.331C160.261 383.816 158.217 383.334 156.654 384.334C155.092 385.335 155.277 388.438 157.132 388.474C161.991 387.058 167.481 388.009 171.58 390.978C166.782 389.91 161.765 389.842 156.94 390.779C155.737 393.683 159.824 395.956 162.968 395.941C166.111 395.926 170.047 395.587 171.573 398.335C167.719 398.135 163.865 397.934 160.011 397.734C161.069 404.601 166.972 410.433 173.851 411.408C175.164 411.594 176.025 412.816 177.002 413.713C180.889 417.277 188.352 414.856 189.406 409.689C198.358 409.414 206.884 403.46 210.224 395.15C205.684 395.795 201.143 396.44 196.602 397.084C197.665 395.034 200.19 394.248 202.486 394.009C204.783 393.769 207.211 393.849 209.247 392.761C211.283 391.672 212.606 388.801 211.148 387.01C205.475 389.004 199.801 390.999 194.127 392.993C196.015 390.179 198.992 388.117 202.289 387.337C204.588 386.793 207.031 386.847 209.231 385.986C211.431 385.126 213.396 382.859 212.774 380.581C206.504 380.981 200.396 383.577 195.756 387.813Z" fill="#00160A"/>
<path fill-rule="evenodd" clip-rule="evenodd" d="M190.071 364.295C189.309 364.256 188.388 364.108 188.106 363.399C189.961 361.298 193.979 361.967 195.054 364.555C193.393 364.468 191.732 364.382 190.071 364.295Z" fill="#00160A"/>
<path fill-rule="evenodd" clip-rule="evenodd" d="M187.222 403.679C187.817 404.396 187.693 405.523 187.134 406.267C186.575 407.012 185.681 407.433 184.782 407.679C183.475 408.039 181.926 408.033 180.931 407.112C179.49 405.779 180.184 403.066 181.955 402.22C183.726 401.375 185.969 402.168 187.222 403.679ZM182.058 404.089C181.607 404.927 182.563 405.959 183.514 405.961C184.465 405.963 185.285 405.33 186.021 404.729C185.053 403.671 183.327 403.407 182.087 404.127L182.058 404.089Z" fill="#00160A"/>
<path fill-rule="evenodd" clip-rule="evenodd" d="M192.199 374.974C191.03 375.564 189.552 374.618 189.11 373.385C188.668 372.152 188.964 370.788 189.305 369.523C189.499 368.802 189.759 368.014 190.408 367.645C191.28 367.151 192.445 367.716 192.952 368.581C193.458 369.446 193.483 370.5 193.494 371.502C193.508 372.808 193.366 374.386 192.199 374.974Z" fill="#00160A"/>
<path fill-rule="evenodd" clip-rule="evenodd" d="M171.157 403.739C174.672 404.192 178.378 402.49 180.326 399.528C182.273 396.566 182.367 392.489 180.558 389.44C179.601 387.828 178.145 385.818 179.304 384.344C179.892 383.595 180.937 383.404 181.888 383.352C182.927 383.296 184.032 383.362 184.9 383.936C185.768 384.51 186.274 385.739 185.746 386.636C183.66 390.178 183.98 394.984 186.515 398.219C189.051 401.454 193.641 402.912 197.579 401.734C198.299 401.518 199.48 401.591 199.338 402.329C199.303 402.508 199.179 402.656 199.052 402.787C196.827 405.085 192.971 404.71 190.105 403.289C187.442 401.967 185.157 399.893 183.584 397.37C182.176 399.771 180.723 402.225 178.568 403.986C176.413 405.746 173.373 406.696 170.79 405.659C170.082 405.375 169.348 404.523 169.86 403.957C170.166 403.617 170.703 403.68 171.157 403.739Z" fill="#00160A"/>
<path fill-rule="evenodd" clip-rule="evenodd" d="M177.386 363.433C177.563 363.988 176.789 364.324 176.211 364.386C175.114 364.504 174.018 364.623 172.921 364.741C172.075 364.832 170.859 364.584 170.952 363.738C172.459 362.15 175.118 361.818 176.968 362.988C177.144 363.099 177.323 363.235 177.386 363.433Z" fill="#00160A"/>
<path fill-rule="evenodd" clip-rule="evenodd" d="M473.204 424.902C472.985 422.819 473.035 420.371 474.686 419.083C476.136 417.951 478.196 418.219 480.006 418.543C482.882 419.057 485.758 419.571 488.634 420.086C490.881 420.487 493.284 420.873 495.374 419.953C497.041 419.219 498.952 420.005 500.773 420.021C502.26 420.034 503.694 419.525 505.093 419.023C509.385 417.482 513.679 415.942 517.971 414.401C518.76 414.118 519.637 413.835 520.413 414.151C521.593 414.632 521.857 416.154 521.948 417.425C522.052 418.872 522.156 420.32 522.26 421.768C522.387 423.536 522.502 425.382 521.809 427.014C521.115 428.645 519.34 429.965 517.624 429.522C513.192 428.379 508.683 427.533 504.138 426.991C503.223 426.882 502.032 426.947 501.731 427.818C501.041 429.815 498.185 429.495 496.101 429.143C491.322 428.336 486.232 429.595 482.38 432.535C481.348 433.322 480.383 434.235 479.193 434.751C478.003 435.268 476.48 435.296 475.536 434.406C474.891 433.798 474.636 432.894 474.429 432.033C473.866 429.686 473.456 427.303 473.204 424.902ZM494.765 423.239C488.965 422.138 483.137 421.187 477.288 420.386C476.365 420.26 475.507 421.022 475.203 421.902C474.899 422.783 475.015 423.747 475.149 424.669C475.443 426.692 475.8 428.707 476.217 430.708C476.348 431.335 476.5 431.99 476.925 432.469C477.351 432.947 478.142 433.163 478.639 432.759C481.809 430.183 485.564 428.329 489.536 427.378C490.731 427.092 491.972 426.876 493.028 426.249C494.084 425.622 494.932 424.456 494.765 423.239ZM511.273 418.757C508.186 419.608 504.906 420.577 502.831 423.015C502.2 423.756 502.071 425.333 503.044 425.296C507.895 425.113 512.78 425.87 517.348 427.513C518.319 427.862 519.413 427.166 519.872 426.242C520.331 425.318 520.316 424.24 520.291 423.208C520.244 421.265 520.197 419.321 520.15 417.377C520.142 417.066 520.098 416.693 519.818 416.555C519.631 416.463 519.409 416.516 519.208 416.572C516.563 417.3 513.918 418.029 511.273 418.757ZM496.189 425.97C496.323 426.427 496.518 426.887 496.879 427.198C497.765 427.96 499.254 427.414 499.848 426.408C500.441 425.402 500.38 424.151 500.245 422.991C500.082 421.6 498.005 421.146 496.953 422.069C495.9 422.993 495.793 424.627 496.189 425.97Z" fill="#00160A"/>
<path fill-rule="evenodd" clip-rule="evenodd" d="M530.746 388.669C528.178 388.355 525.525 388.757 523.165 389.818C522.556 390.092 521.963 389.192 522.227 388.579C522.491 387.965 523.181 387.673 523.811 387.451C527.454 386.169 532.082 385.535 534.681 388.393C533.569 389.154 532.084 388.833 530.746 388.669Z" fill="#00160A"/>
<path fill-rule="evenodd" clip-rule="evenodd" d="M502.71 402.286C502.77 404.27 500.89 405.882 498.937 406.236C496.984 406.59 494.998 406.008 493.098 405.431C491.445 404.929 490.93 402.607 491.803 401.116C492.675 399.624 494.439 398.887 496.145 398.608C497.549 398.378 499.042 398.402 500.333 399.001C501.623 399.601 502.667 400.864 502.71 402.286ZM493.551 402.762C493.644 403.356 494.34 403.615 494.924 403.758C496.059 404.036 497.23 404.316 498.385 404.145C499.541 403.973 500.693 403.238 500.994 402.109C499.278 400.334 496.211 400.091 494.236 401.572C493.851 401.861 493.477 402.286 493.551 402.762Z" fill="#00160A"/>
<path fill-rule="evenodd" clip-rule="evenodd" d="M472.994 392.164C469.567 392.172 466.139 392.179 462.712 392.187C461.989 392.189 460.97 391.809 461.214 391.129C464.793 389.573 468.948 389.384 472.654 390.609C473.336 390.834 474.078 391.754 473.443 392.09C473.307 392.162 473.147 392.164 472.994 392.164Z" fill="#00160A"/>
<path fill-rule="evenodd" clip-rule="evenodd" d="M510.916 379.122C511.111 377.897 511.447 376.479 512.58 375.975C513.671 375.49 514.996 376.182 515.624 377.198C516.252 378.214 516.357 379.456 516.447 380.647C514.901 380.788 513.355 380.929 511.809 381.071C510.982 381.146 510.785 379.942 510.916 379.122Z" fill="#00160A"/>
<path fill-rule="evenodd" clip-rule="evenodd" d="M524.336 393.759C523.838 393.656 523.324 393.546 522.909 393.252C522.61 393.04 522.375 392.738 522.245 392.396C525.738 390.923 530.188 392.258 532.294 395.409C529.641 394.859 526.989 394.309 524.336 393.759Z" fill="#00160A"/>
<path fill-rule="evenodd" clip-rule="evenodd" d="M517.148 372.468C518.036 371.048 520.25 371.713 521.589 372.719C522.91 373.711 524.091 374.887 525.09 376.202C525.046 376.975 523.845 376.799 523.195 376.379C521.179 375.075 519.164 373.772 517.148 372.468Z" fill="#00160A"/>
<path fill-rule="evenodd" clip-rule="evenodd" d="M468.689 395.913C470.102 395.43 471.515 394.947 472.928 394.464C473.495 394.27 474.099 394.074 474.681 394.217C475.262 394.36 475.763 394.991 475.54 395.547C472.764 396.584 469.952 397.526 467.111 398.371C466.66 397.982 466.752 397.214 467.143 396.765C467.534 396.316 468.125 396.106 468.689 395.913Z" fill="#00160A"/>
<path fill-rule="evenodd" clip-rule="evenodd" d="M480.413 378.096C480.952 378.461 481.23 379.096 481.48 379.697C481.814 380.496 482.154 381.358 481.973 382.205C481.793 383.052 480.842 383.782 480.064 383.402C479.182 382.972 478.224 384.55 477.355 384.094C476.944 383.878 476.865 383.334 476.835 382.871C476.754 381.624 476.688 380.302 477.279 379.202C477.87 378.102 479.378 377.397 480.413 378.096Z" fill="#00160A"/>
<path fill-rule="evenodd" clip-rule="evenodd" d="M469.63 377.539C470.932 374.337 474.666 372.333 478.054 373.017C478.514 373.11 479.083 373.455 478.92 373.895C478.834 374.128 478.575 374.24 478.341 374.326C475.438 375.397 472.534 376.468 469.63 377.539Z" fill="#00160A"/>
<path fill-rule="evenodd" clip-rule="evenodd" d="M486.927 393.72C486.197 393.812 485.268 393.742 484.993 393.059C485.483 392.669 486.069 392.254 486.68 392.396C487.29 392.538 487.511 393.603 486.898 393.732L486.927 393.72Z" fill="#00160A"/>
<path fill-rule="evenodd" clip-rule="evenodd" d="M501.539 392.671C502.307 392.543 502.712 391.463 502.218 390.862C501.723 390.261 500.586 390.451 500.312 391.18C500.039 391.908 500.771 392.799 501.539 392.671Z" fill="#00160A"/>
<path fill-rule="evenodd" clip-rule="evenodd" d="M484.48 397.878C483.404 397.722 482.021 397.022 482.352 395.986C483.537 395.303 485.007 395.888 486.361 396.084C487.715 396.28 489.542 395.539 489.319 394.189C489.545 394.758 489.771 395.327 489.998 395.895C491.376 395.528 492.662 394.821 493.711 393.856C494.304 393.31 494.834 392.372 494.307 391.762C493.087 390.35 494.412 387.703 496.274 387.833C498.135 387.963 499.08 390.767 497.676 391.997C497.312 392.316 497.677 392.901 498.055 393.204C500.688 395.318 504.359 396.07 507.612 395.16C509.066 394.753 510.925 394.155 511.849 395.35C507.21 398.7 500.159 398.117 496.133 394.052C493.867 397.748 488.77 398.499 484.48 397.878Z" fill="#00160A"/>
<path fill-rule="evenodd" clip-rule="evenodd" d="M506.341 391.52C506.788 391.721 506.857 392.446 506.456 392.729C506.056 393.012 505.397 392.705 505.356 392.217C505.525 391.854 505.917 391.606 506.317 391.61L506.341 391.52Z" fill="#00160A"/>
<path fill-rule="evenodd" clip-rule="evenodd" d="M489.493 392.031C489.961 392.75 491.335 391.856 490.867 391.136C490.398 390.417 489.025 391.312 489.493 392.031Z" fill="#00160A"/>
<path fill-rule="evenodd" clip-rule="evenodd" d="M450.499 178.023C448.697 178.224 446.754 178.663 445.159 177.801C447.047 176.027 449.863 175.682 452.45 175.809C456.835 176.026 461.16 177.358 464.908 179.645C464.121 181.094 461.948 180.382 460.456 179.679C457.373 178.227 453.885 177.647 450.499 178.023Z" fill="#00160A"/>
<path fill-rule="evenodd" clip-rule="evenodd" d="M513.834 162.957C513.547 161.874 513.533 160.988 514.521 160.459C515.96 159.69 520.502 159.761 520.992 160.881C521.483 162.001 519.616 167.151 516.996 167.151C515.948 167.151 514.121 164.041 513.834 162.957Z" fill="#00160A"/>
<path fill-rule="evenodd" clip-rule="evenodd" d="M542.651 175.717C537.012 176.068 531.43 177.3 526.166 179.354C525.444 179.635 524.333 179.745 524.169 178.988C525.088 177.444 526.934 176.752 528.659 176.247C532.52 175.119 536.495 174.379 540.504 174.044C541.083 173.995 541.701 173.963 542.208 174.248C542.715 174.534 543.013 175.261 542.651 175.717Z" fill="#00160A"/>
<path fill-rule="evenodd" clip-rule="evenodd" d="M543.79 182.044C539.33 182.443 534.871 182.842 530.411 183.24C529.598 183.313 528.38 182.77 528.848 182.1C533.436 180.667 538.252 179.969 543.057 180.04C544.246 180.058 545.625 180.229 546.249 181.24C545.618 181.855 544.667 181.966 543.79 182.044Z" fill="#00160A"/>
<path fill-rule="evenodd" clip-rule="evenodd" d="M478.212 167.525C477.267 168.637 475.35 168.318 474.337 167.268C473.325 166.217 472.978 164.71 472.674 163.283C472.515 162.539 472.377 161.694 472.82 161.075C473.285 160.426 479.754 160.38 480.062 160.936C480.369 161.493 480.179 161.962 480.062 162.394C479.849 163.179 478.896 166.72 478.212 167.525Z" fill="#00160A"/>
<path fill-rule="evenodd" clip-rule="evenodd" d="M444.431 185.165C450.055 182.848 456.332 182.142 462.33 183.152C462.973 183.26 463.678 183.429 464.044 183.968C464.409 184.508 464.057 185.472 463.412 185.38C456.444 184.389 448.88 184.461 442.95 188.252C442.327 187.898 442.284 186.952 442.682 186.357C443.08 185.761 443.769 185.437 444.431 185.165Z" fill="#00160A"/>
<path fill-rule="evenodd" clip-rule="evenodd" d="M485.722 190.705C485.432 189.872 486.054 188.852 486.927 188.727C487.275 188.954 487.504 189.355 487.523 189.77C487.25 190.413 486.535 190.837 485.841 190.768L485.722 190.705Z" fill="#00160A"/>
<path fill-rule="evenodd" clip-rule="evenodd" d="M476.623 154.608C477.598 154.623 478.935 155.275 478.509 156.151C474.273 156.399 470.091 157.52 466.299 159.423C465.74 159.367 465.474 158.625 465.69 158.106C465.907 157.587 466.419 157.264 466.913 156.995C469.875 155.387 473.254 154.556 476.623 154.608Z" fill="#00160A"/>
<path fill-rule="evenodd" clip-rule="evenodd" d="M500.26 189.993C500.877 189.328 502.121 189.438 502.612 190.2C502.131 191.119 500.516 191.028 500.141 190.061L500.26 189.993Z" fill="#00160A"/>
<path fill-rule="evenodd" clip-rule="evenodd" d="M504.552 189.551C504.982 188.927 506.2 189.467 506.026 190.205C505.845 190.577 505.442 190.829 505.029 190.829C504.553 190.646 504.32 190.009 504.564 189.562L504.552 189.551Z" fill="#00160A"/>
<path fill-rule="evenodd" clip-rule="evenodd" d="M489.982 186.156C489.553 186.781 488.333 186.24 488.508 185.503C488.688 185.131 489.092 184.879 489.505 184.879C489.981 185.061 490.215 185.699 489.971 186.146L489.982 186.156Z" fill="#00160A"/>
<path fill-rule="evenodd" clip-rule="evenodd" d="M482.784 187.861C482.746 188.586 483.648 189.17 484.294 188.84C484.94 188.51 484.995 187.438 484.387 187.043C483.778 186.649 482.821 187.137 482.784 187.861Z" fill="#00160A"/>
<path fill-rule="evenodd" clip-rule="evenodd" d="M501.153 187.411C501.77 187.872 502.817 187.424 502.909 186.66C503 185.895 502.088 185.212 501.38 185.515C500.673 185.818 500.537 186.95 501.153 187.411Z" fill="#00160A"/>
<path fill-rule="evenodd" clip-rule="evenodd" d="M512.588 156.775C516.21 154.154 521.222 155.356 525.497 156.665C526.167 156.87 527.005 157.485 526.619 158.069C526.388 158.416 525.883 158.405 525.469 158.354C521.175 157.828 516.882 157.301 512.588 156.775Z" fill="#00160A"/>
<path fill-rule="evenodd" clip-rule="evenodd" d="M496.39 187.413C497.693 191.463 502.377 194.09 506.513 193.089C508.332 192.649 510.409 191.66 511.901 192.79C509.285 194.98 505.604 195.831 502.292 195.013C498.981 194.194 496.121 191.725 494.827 188.569C492.262 192.143 488.196 194.602 483.839 195.212C483.189 195.304 482.45 195.33 481.958 194.895C481.465 194.46 481.595 193.422 482.251 193.376C485.847 193.125 489.335 191.546 491.896 189.009C493.286 187.632 494.429 185.418 493.317 183.808C492.281 182.307 491.448 180.667 490.848 178.945C490.625 178.307 490.452 177.541 490.862 177.004C491.166 176.606 491.693 176.47 492.18 176.358C493.66 176.019 495.191 175.678 496.682 175.961C498.173 176.243 499.625 177.322 499.846 178.824C500.312 181.996 495.407 184.36 496.39 187.413Z" fill="#00160A"/>
<path fill-rule="evenodd" clip-rule="evenodd" d="M201.219 176.474C201.541 175.54 203.281 175.863 203.245 176.851C202.881 177.779 201.155 177.437 201.171 176.441L201.219 176.474Z" fill="#00160A"/>
<path fill-rule="evenodd" clip-rule="evenodd" d="M185.513 180.772C185.314 179.776 183.411 180.154 183.609 181.151C183.807 182.148 185.711 181.769 185.513 180.772Z" fill="#00160A"/>
<path fill-rule="evenodd" clip-rule="evenodd" d="M188.213 182.461C188.669 181.898 189.473 181.645 190.168 181.845C190.396 182.129 190.468 182.53 190.353 182.875C189.837 183.085 189.321 183.295 188.804 183.505C188.586 183.176 188.367 182.846 188.148 182.516L188.213 182.461Z" fill="#00160A"/>
<path fill-rule="evenodd" clip-rule="evenodd" d="M188.443 180.096C188.096 179.855 187.864 179.457 187.823 179.037C188.199 178.255 189.531 178.246 189.919 179.023C189.562 179.535 189.035 179.926 188.442 180.117L188.443 180.096Z" fill="#00160A"/>
<path fill-rule="evenodd" clip-rule="evenodd" d="M176.31 182.673C175.794 183.346 174.63 182.473 174.77 181.636C174.909 180.8 175.691 180.256 176.354 179.728C177.767 178.6 178.906 177.128 180.445 176.178C181.984 175.228 184.188 174.955 185.472 176.229C181.86 177.384 178.618 179.665 176.31 182.673Z" fill="#00160A"/>
<path fill-rule="evenodd" clip-rule="evenodd" d="M171.896 173.532C173.989 171.574 176.592 170.164 179.376 169.481C179.97 169.335 180.62 169.227 181.176 169.482C181.732 169.738 182.084 170.502 181.711 170.988C178.168 171.617 174.834 173.372 172.311 175.936C171.852 176.403 170.982 175.84 170.958 175.186C170.935 174.532 171.418 173.979 171.896 173.532Z" fill="#00160A"/>
<path fill-rule="evenodd" clip-rule="evenodd" d="M198.396 177.11C198.333 176.63 199.155 176.892 199.401 177.309C199.067 177.808 198.732 178.307 198.397 178.806C197.702 178.582 197.67 177.391 198.352 177.13L198.396 177.11Z" fill="#00160A"/>
<path fill-rule="evenodd" clip-rule="evenodd" d="M219.098 174.5C216.07 173.567 213.041 172.634 210.013 171.702C209.304 171.484 208.529 171.213 208.169 170.565C212.35 169.619 216.947 170.738 220.225 173.501C220.363 173.618 220.505 173.748 220.55 173.922C220.71 174.542 219.71 174.688 219.098 174.5Z" fill="#00160A"/>
<path fill-rule="evenodd" clip-rule="evenodd" d="M199.039 179.945C199.376 179.541 200.093 179.552 200.417 179.966C200.742 180.381 200.581 181.079 200.107 181.309C199.403 181.24 198.799 180.606 198.763 179.899L199.039 179.945Z" fill="#00160A"/>
<path fill-rule="evenodd" clip-rule="evenodd" d="M216.959 181.065C213.818 179.962 210.677 178.859 207.536 177.757C207.279 177.667 207.007 177.566 206.843 177.349C206.481 176.874 206.9 176.134 207.47 175.956C208.04 175.778 208.652 175.977 209.215 176.175C210.908 176.768 212.6 177.362 214.293 177.955C215.742 178.463 217.526 179.638 216.959 181.065Z" fill="#00160A"/>
<path fill-rule="evenodd" clip-rule="evenodd" d="M628.34 44.6678C639.745 49.2858 647.503 60.4048 651.102 72.1708C654.701 83.9378 654.736 96.4558 654.741 108.76C654.778 199.924 654.814 291.089 654.851 382.253C654.851 395.59 654.748 409.451 648.963 421.468C643.658 432.484 633.618 441.12 621.932 444.717C613.452 447.328 604.422 447.347 595.549 447.347C427.537 447.318 259.524 447.289 91.5115 447.259C83.1405 447.258 74.1907 447.085 67.3004 442.332C56.2667 434.722 55.1756 419.127 55.1714 405.723C55.1385 301.562 55.1055 197.402 55.0725 93.2408C55.0725 85.4988 55.0998 77.5678 57.775 70.3028C62.3925 57.7628 74.3874 49.0948 87.1385 45.0988C99.8905 41.1028 113.499 41.0818 126.862 41.0948C157.099 41.1298 187.337 41.1628 217.575 41.1958C346.65 41.3358 475.725 41.4768 604.799 41.6178C612.764 41.6268 620.958 41.6778 628.34 44.6678ZM347.242 445.159C347.17 378.878 347.099 312.597 347.027 246.317C251.695 246.355 156.362 246.394 61.0291 246.433C60.2086 246.433 59.2902 246.473 58.7244 247.068C58.1932 247.626 58.1615 248.478 58.1609 249.248C58.1182 304.867 58.0755 360.486 58.0326 416.105C58.0326 419.002 58.0326 421.926 58.6442 424.758C60.6727 434.127 69.2146 440.976 78.37 443.817C87.5255 446.659 97.3285 446.228 106.908 445.87C143.999 444.485 181.128 444.608 218.245 444.731C261.244 444.873 304.243 445.016 347.242 445.159ZM349.69 246.607C349.746 312.712 349.801 378.817 349.857 444.923C433.418 444.845 516.979 444.767 600.539 444.689C606.823 444.683 613.175 444.669 619.286 443.208C633.666 439.769 645.557 427.982 649.792 413.816C652.293 405.448 652.295 396.566 652.275 387.831C652.167 340.64 652.06 293.449 651.952 246.258C551.198 246.374 450.444 246.491 349.69 246.607ZM349.66 44.5778C349.747 110.856 349.834 177.134 349.921 243.412C449.756 243.418 549.591 243.425 649.426 243.432C650.258 243.432 651.212 243.375 651.719 242.716C652.083 242.244 652.098 241.599 652.099 241.003C652.113 192.693 652.129 144.382 652.143 96.0718C652.143 88.9398 652.135 81.7178 650.346 74.8138C645.459 55.9488 626.045 41.9798 606.604 43.3418C592.189 44.3508 577.724 44.3648 563.273 44.3788C492.069 44.4448 420.864 44.5118 349.66 44.5778ZM347.237 243.156C347.158 176.886 347.078 110.616 346.999 44.3458C264.685 44.3168 182.371 44.2868 100.057 44.2578C80.6435 44.2508 62.3304 59.5308 58.8598 78.6308C57.9549 83.6108 57.9604 88.7058 57.9672 93.7678C58.0508 143.576 58.1329 193.385 58.215 243.193C154.555 243.593 250.897 243.581 347.237 243.156Z" fill="white"/>
<path fill-rule="evenodd" clip-rule="evenodd" d="M196.071 177.116C195.486 178.648 196.23 180.423 197.407 181.565C199.124 183.23 201.768 183.869 204.055 183.17C205.701 182.667 207.696 181.611 208.914 182.826C205.284 186.482 198.393 185.967 195.348 181.812C194.396 184.293 192.218 186.269 189.656 186.974C187.095 187.679 184.212 187.097 182.125 185.453C183.659 184.182 185.933 185.174 187.926 185.185C190.033 185.197 192.093 183.908 193.003 182.008C193.914 180.107 193.627 177.694 192.297 176.059C190.941 174.393 189.891 172.478 189.215 170.438C189.059 169.965 188.922 169.451 189.073 168.977C189.383 168.006 190.63 167.776 191.647 167.725C193.733 167.62 195.822 167.564 197.91 167.555C198.914 167.551 200.13 167.687 200.552 168.597C200.829 169.197 200.629 169.902 200.385 170.517C199.75 172.118 198.837 173.608 197.699 174.901C197.09 175.593 196.4 176.255 196.071 177.116Z" fill="#00160A"/>
<path fill-rule="evenodd" clip-rule="evenodd" d="M213.929 136.335C210.842 135.761 207.589 136.107 204.692 137.317C204.289 137.485 203.825 137.669 203.436 137.471C202.962 137.228 202.912 136.518 203.207 136.075C203.502 135.631 204.02 135.397 204.518 135.206C209.642 133.241 215.62 133.643 220.435 136.276C218.601 137.553 216.126 136.744 213.929 136.335Z" fill="#00160A"/>
<path fill-rule="evenodd" clip-rule="evenodd" d="M212.417 151.942C212.156 152.451 211.843 152.976 211.333 153.235C210.576 153.62 209.594 153.26 209.077 152.586C208.561 151.912 208.436 151.01 208.499 150.164C208.628 148.435 210.124 146.494 211.756 147.08C213.506 147.708 213.262 150.286 212.417 151.942Z" fill="#00160A"/>
<path fill-rule="evenodd" clip-rule="evenodd" d="M182.45 148.985C182.634 150.455 181.984 152.101 180.64 152.724C179.296 153.346 177.384 152.503 177.24 151.028C177.19 150.515 177.34 150.006 177.497 149.515C177.954 148.083 178.894 146.399 180.392 146.527C181.545 146.625 182.307 147.837 182.45 148.985Z" fill="#00160A"/>
<path fill-rule="evenodd" clip-rule="evenodd" d="M169.358 138.448C169.119 137.68 170.049 137.093 170.817 136.853C175.343 135.438 180.236 135.214 184.872 136.208C185.554 136.355 186.305 136.581 186.645 137.19C186.985 137.798 186.464 138.795 185.802 138.577C181.248 137.081 176.191 137.165 171.689 138.811C170.857 139.116 169.622 139.294 169.358 138.448Z" fill="#00160A"/>
<path fill-rule="evenodd" clip-rule="evenodd" d="M236.177 99.7628C235.733 106.823 235.288 113.904 235.705 120.965C236.03 126.462 236.876 131.927 236.954 137.433C237.177 153.346 230.939 168.759 222.452 182.222C242.827 195.925 258.187 216.918 265.081 240.484C262.144 238.652 260.881 235.1 259.647 231.865C252.837 214.002 240.853 198.146 225.526 186.72C223.328 185.082 219.592 183.843 218.377 186.3C215.631 191.852 211.572 196.749 206.626 200.478C204.832 201.83 202.823 203.167 201.421 204.865C201.434 205.004 201.439 205.144 201.439 205.285C201.439 208.157 199.111 210.485 196.239 210.485C194.287 210.485 192.586 209.41 191.697 207.819C178.751 202.127 168.217 191.078 163.263 177.819C153.797 184.383 148.34 195.554 146.247 206.881C144.155 218.208 145.044 229.848 145.941 241.331C144.996 241.972 144.111 240.425 144.003 239.288C142.911 227.79 142.298 216.083 144.684 204.783C147.069 193.482 152.77 182.498 162.189 175.814C153.448 156.783 156.847 133.437 146.184 115.413C145.551 114.343 145.018 112.674 146.126 112.11C146.537 111.901 147.028 111.966 147.483 112.043C154.918 113.305 162.003 116.574 167.787 121.414C169.279 122.663 171.511 121.751 173.255 120.888C186.653 114.253 202.652 113.064 216.884 117.647C220.459 110.776 225.727 104.794 232.089 100.378C233.316 99.5258 235.073 98.7558 236.177 99.7628ZM190.218 192.622C194.803 193.024 199.475 193.421 203.969 192.423C214.248 190.141 221.623 181.047 226.332 171.629C231.725 160.846 234.746 148.884 235.121 136.832C231.796 139.506 228.471 142.181 225.146 144.855C223.177 146.438 221.026 148.388 221.064 150.915C221.118 154.507 218.892 158.034 215.626 159.531C212.359 161.029 208.235 160.413 205.548 158.027C202.516 155.335 200.793 150.46 196.754 150.105C191.99 149.686 189.72 155.795 185.887 158.654C181.002 162.298 173.118 159.562 170.68 153.977C170.216 152.915 170.382 151.029 169.319 150.382C165.931 148.319 162.189 148.244 157.773 148.391C158.56 158.012 160.889 167.505 164.644 176.398C166.308 180.338 168.336 184.272 171.602 187.034C176.633 191.288 183.654 192.046 190.218 192.622ZM217.82 119.828C216.338 122.656 213.852 126.196 210.87 125.054C212.785 123.413 214.44 121.469 215.753 119.316C200.916 115.086 184.48 116.773 170.811 123.927C171.988 125.351 173.435 126.551 175.052 127.443C173.341 129.073 170.701 127.075 169.082 125.354C163.571 119.495 156.039 115.576 148.079 114.425C151.345 119.667 154.365 130.051 157.138 145.576C161.632 146.593 164.653 147.117 166.201 147.15C167.981 147.188 170.151 147.003 170.929 145.401C172.986 141.169 178.136 138.7 182.723 139.748C187.311 140.795 190.879 145.255 190.895 149.96C193.87 148.011 197.851 147.702 201.091 149.168C201.429 145.163 204.463 141.525 208.341 140.474C212.22 139.422 216.675 141.029 218.99 144.314C219.997 145.743 222.225 144.693 223.56 143.565C226.328 141.228 229.095 138.89 231.862 136.553C233.422 135.236 235.137 133.527 234.81 131.512C233.191 121.534 232.989 111.327 234.212 101.293C227.363 106.032 221.686 112.451 217.82 119.828ZM210.747 191.669C204.087 196.193 195.296 195.405 187.303 194.437C182.936 193.908 178.418 193.328 174.664 191.036C173.893 190.565 172.882 190.026 172.169 190.582C176.644 196.167 182.439 200.687 188.945 203.668C189.912 204.111 191.337 204.372 191.796 203.413C192.85 201.205 196.047 200.388 198.031 201.818C199.645 202.982 201.876 201.864 203.471 200.675C207.052 198.004 210.321 194.914 213.189 191.488C212.769 190.657 211.518 191.146 210.747 191.669ZM172.977 154.179C174.985 157.568 179.566 159.166 183.246 157.759C186.925 156.353 189.274 152.109 188.51 148.244C187.747 144.38 183.96 141.347 180.022 141.447C176.084 141.546 172.455 144.766 171.887 148.664C171.612 150.554 172.003 152.536 172.977 154.179ZM203.567 148.319C203.094 151.119 204.19 154.07 206.176 156.099C207.635 157.589 209.646 158.642 211.731 158.565C215.457 158.427 218.167 154.864 219.316 151.317C219.616 150.392 219.851 149.409 219.669 148.454C219.433 147.214 218.532 146.212 217.592 145.37C215.231 143.257 212.047 141.656 208.96 142.366C206.193 143.002 204.04 145.52 203.567 148.319Z" fill="#00160A"/>
</svg>
